<svg width="1200" height="1080" viewBox="0 0 1200 1080" fill="none" xmlns="http://www.w3.org/2000/svg">
  <g opacity="0.25" filter="url(#filter0_d_803_11078)">
    <path d="M362.384 256.654C362.384 256.654 491.057 354.3 686.674 171.72C860.4 9.57555 1002.25 265.404 1003.24 387.917C1004.53 546.617 829.517 673.598 914.451 777.836C999.381 882.073 746.014 1054.2 609.463 905.237C439.594 719.927 393.576 870.493 296.753 870.493C227.262 870.493 84.5895 697.821 180.935 569.361C262.008 461.267 217.792 425.391 196.38 387.917C165.492 333.866 238.844 187.164 362.384 256.654Z" fill="#DEE9FF" />
    <path d="M878.966 472.436C885.883 475.007 893.439 475.179 900.63 473.524C930.759 466.612 1034.36 448.299 1016.36 528.579C1012.44 544.504 951.763 633.707 1038.17 666.266C1044.5 668.683 1051.2 670.003 1057.97 670.166C1084.58 670.714 1137.3 664.432 1159.36 641.974C1186.02 614.842 1156.89 627.707 1156.89 627.707C1156.89 627.707 1055.56 671.927 1019.77 625.012C1015.79 619.792 1013.25 612.21 1012.53 605.683C1011.27 594.369 1016.29 579.416 1022.89 566.396C1031.82 548.777 1074.71 469.522 981.592 446.434C960.142 441.326 928.984 436.74 888.814 453.652C865.38 463.517 870.57 469.316 878.966 472.436Z" fill="#BDD6F9" />
    <path d="M899.7 442.847L872.73 452.944C863.421 456.429 858.699 466.8 862.183 476.109L863.52 479.683C867.004 488.992 877.376 493.714 886.684 490.23L913.659 480.137C922.967 476.653 927.69 466.281 924.206 456.969L922.869 453.399C919.384 444.086 909.013 439.363 899.7 442.847Z" fill="#0E84E5" />
    <path d="M734.143 472.059L645.197 505.35C640.538 507.09 638.177 512.276 639.921 516.93L640.273 517.869C642.013 522.523 647.198 524.884 651.857 523.144L740.803 489.853C745.461 488.109 747.823 482.923 746.078 478.269L745.727 477.33C743.987 472.676 738.801 470.314 734.143 472.059Z" fill="white" />
    <path d="M758.97 538.388L670.02 571.676C665.365 573.42 663.004 578.606 664.748 583.26L665.095 584.199C666.84 588.853 672.025 591.214 676.68 589.47L765.63 556.183C770.284 554.439 772.645 549.253 770.905 544.598L770.554 543.66C768.814 539.006 763.624 536.644 758.97 538.388Z" fill="white" />
    <path d="M841.093 426.793L769.003 453.771C759.69 457.256 754.967 467.631 758.451 476.94L783.069 542.704C786.553 552.013 796.924 556.736 806.233 553.251L878.327 526.273C887.636 522.789 892.358 512.417 888.874 503.104L864.261 437.34C860.777 428.031 850.406 423.309 841.093 426.793Z" fill="#5895F9" />
    <path d="M776.451 444.043L704.357 471.026C695.048 474.51 690.326 484.881 693.81 494.194L723.176 572.653C726.66 581.961 737.031 586.684 746.34 583.2L818.434 556.221C827.743 552.737 832.466 542.366 828.981 533.053L799.616 454.594C796.131 445.281 785.76 440.559 776.451 444.043Z" fill="#699CFF" />
    <path d="M787.736 428.121L787.17 428.332C780.965 430.654 777.815 437.571 780.137 443.777L821.276 553.693C823.599 559.899 830.512 563.049 836.717 560.726L837.283 560.512C843.493 558.189 846.639 551.276 844.316 545.07L803.182 435.154C800.859 428.949 793.942 425.799 787.736 428.121Z" fill="#208AF2" />
    <path d="M52.6355 498.394C52.6355 498.394 197.42 457.706 176.4 551.451C172.75 566.284 120.202 642.656 182.794 679.324C196.234 687.197 211.744 690.686 227.32 690.604C255.245 690.459 299.516 685.084 319.405 664.843C346.059 637.71 316.94 650.576 316.94 650.576C316.94 650.576 233.788 684.78 191.009 657.514C176.402 648.206 169.781 630.18 173.747 613.316C175.775 604.941 178.862 596.858 182.935 589.264C192.238 571.838 234.758 492.39 141.638 469.303C120.187 464.194 89.0302 459.609 48.8572 476.52C8.68429 493.436 52.6355 498.394 52.6355 498.394Z" fill="#BDD6F9" />
    <path d="M338.873 629.597L311.902 639.694C302.591 643.179 297.868 653.55 301.353 662.863L302.69 666.433C306.174 675.746 316.547 680.469 325.857 676.98L352.828 666.887C362.139 663.403 366.861 653.031 363.377 643.719L362.04 640.149C358.556 630.836 348.183 626.113 338.873 629.597Z" fill="#0E84E5" />
    <path d="M384.442 585.223L344.469 600.184C335.159 603.669 330.436 614.04 333.92 623.353L353.195 674.85C356.68 684.163 367.052 688.886 376.362 685.401L416.335 670.44C425.645 666.956 430.367 656.584 426.884 647.271L407.609 595.774C404.124 586.461 393.752 581.739 384.442 585.223Z" fill="#5895F9" />
    <path d="M450.986 545.571L391.377 567.883C382.067 571.367 377.344 581.739 380.829 591.051L410.193 669.51C413.678 678.823 424.05 683.546 433.359 680.061L492.969 657.75C502.282 654.266 507.005 643.894 503.52 634.581L474.155 556.123C470.67 546.81 460.299 542.087 450.986 545.571Z" fill="#699CFF" />
    <path d="M463.615 529.324L463.05 529.534C456.84 531.857 453.694 538.774 456.017 544.98L497.151 654.896C499.474 661.101 506.391 664.251 512.597 661.929L513.163 661.714C519.368 659.391 522.518 652.479 520.195 646.269L479.057 536.357C476.734 530.151 469.821 527.001 463.615 529.324Z" fill="#208AF2" />
    <path d="M615.832 459.3C613.685 459.06 611.713 458.001 610.333 456.339C608.958 454.676 608.276 452.546 608.435 450.39L612.883 369.15C613.149 364.297 617.246 360.61 621.896 361.039L628.376 361.639C633.026 362.068 636.356 366.439 635.705 371.259L624.776 451.899C624.528 454.046 623.456 456.013 621.789 457.393C620.122 458.773 617.988 459.454 615.832 459.3Z" fill="#418DF9" />
    <path d="M577.427 466.303C576.758 466.5 576.059 466.564 575.365 466.491C574.675 466.414 574.002 466.204 573.394 465.87C572.781 465.54 572.245 465.09 571.808 464.546C571.371 464.006 571.045 463.38 570.848 462.716L554.965 412.179C554.502 410.743 554.631 409.179 555.317 407.837C556.007 406.491 557.198 405.476 558.638 405.013L562.748 403.77C563.455 403.564 564.197 403.509 564.925 403.603C565.654 403.697 566.352 403.941 566.982 404.323C567.612 404.7 568.157 405.206 568.581 405.806C569.005 406.406 569.301 407.087 569.447 407.807L581.219 459.587C581.549 460.976 581.339 462.441 580.637 463.688C579.934 464.931 578.79 465.866 577.427 466.303Z" fill="#418DF9" />
    <path d="M555.995 495.446C553.149 498.973 547.423 498.93 543.018 495.351L464.799 431.799C460.123 428.001 458.748 421.719 461.765 417.981L465.973 412.77C468.995 409.029 475.192 409.337 479.615 413.443L553.629 482.211C557.799 486.081 558.84 491.923 555.995 495.446Z" fill="#418DF9" />
    <path d="M592.153 659.597C594.167 660.377 595.8 661.907 596.709 663.866C597.621 665.824 597.733 668.061 597.03 670.101L571.98 747.51C570.484 752.134 565.581 754.65 561.193 753.047L555.077 750.814C550.693 749.212 548.589 744.133 550.449 739.646L581.61 664.47C582.403 662.456 583.937 660.827 585.904 659.919C587.867 659.01 590.104 658.894 592.153 659.597Z" fill="#418DF9" />
    <path d="M631.071 662.636C631.765 662.614 632.46 662.734 633.111 662.983C633.758 663.231 634.354 663.604 634.86 664.084C635.365 664.56 635.772 665.134 636.055 665.769C636.338 666.403 636.497 667.089 636.514 667.787L638.965 720.703C639.042 722.211 638.524 723.686 637.513 724.808C636.505 725.936 635.091 726.613 633.587 726.694L629.293 726.844C628.555 726.861 627.827 726.729 627.145 726.45C626.464 726.171 625.851 725.756 625.337 725.229C624.827 724.701 624.428 724.076 624.171 723.386C623.918 722.696 623.807 721.963 623.845 721.23L625.688 668.164C625.727 666.733 626.305 665.37 627.3 664.346C628.298 663.321 629.644 662.713 631.071 662.636Z" fill="#418DF9" />
    <path d="M659.238 639.93C662.889 637.247 668.413 638.751 671.756 643.337L731.156 724.757C734.7 729.621 734.43 736.046 730.556 738.891L725.156 742.856C721.282 745.701 715.363 743.82 712.136 738.72L658.136 653.331C655.102 648.527 655.586 642.613 659.238 639.93Z" fill="#418DF9" />
  </g>
  <defs>
    <filter id="filter0_d_803_11078" x="-4" y="-60" width="1208" height="1208" filterUnits="userSpaceOnUse" color-interpolation-filters="sRGB">
      <feFlood flood-opacity="0" result="BackgroundImageFix" />
      <feColorMatrix in="SourceAlpha" type="matrix" values="0 0 0 0 0 0 0 0 0 0 0 0 0 0 0 0 0 0 127 0" result="hardAlpha" />
      <feOffset dy="4" />
      <feGaussianBlur stdDeviation="2" />
      <feComposite in2="hardAlpha" operator="out" />
      <feColorMatrix type="matrix" values="0 0 0 0 0 0 0 0 0 0 0 0 0 0 0 0 0 0 0.25 0" />
      <feBlend mode="normal" in2="BackgroundImageFix" result="effect1_dropShadow_803_11078" />
      <feBlend mode="normal" in="SourceGraphic" in2="effect1_dropShadow_803_11078" result="shape" />
    </filter>
  </defs>
</svg>