<svg width="32" height="32" viewBox="0 0 32 32" fill="none" xmlns="http://www.w3.org/2000/svg">
	<rect width="32" height="32" rx="16" fill="#131414" />
	<path d="M16 7.66699C13.8167 7.66699 12.0417 9.44199 12.0417 11.6253C12.0417 13.767 13.7167 15.5003 15.9 15.5753C15.9667 15.567 16.0334 15.567 16.0834 15.5753C16.1 15.5753 16.1084 15.5753 16.125 15.5753C16.1334 15.5753 16.1334 15.5753 16.1417 15.5753C18.275 15.5003 19.95 13.767 19.9584 11.6253C19.9584 9.44199 18.1834 7.66699 16 7.66699Z" fill="white" />
	<path d="M20.2334 17.7914C17.9084 16.2414 14.1167 16.2414 11.775 17.7914C10.7167 18.4997 10.1334 19.4581 10.1334 20.4831C10.1334 21.5081 10.7167 22.4581 11.7667 23.1581C12.9334 23.9414 14.4667 24.3331 16 24.3331C17.5334 24.3331 19.0667 23.9414 20.2334 23.1581C21.2834 22.4497 21.8667 21.4997 21.8667 20.4664C21.8584 19.4414 21.2834 18.4914 20.2334 17.7914Z" fill="white" />
</svg>
