<svg width="20" height="20" viewBox="0 0 20 20" fill="none" xmlns="http://www.w3.org/2000/svg">
<path d="M13.4917 1.66675H6.50841C3.47508 1.66675 1.66675 3.47508 1.66675 6.50841V13.4834C1.66675 16.5251 3.47508 18.3334 6.50841 18.3334H13.4834C16.5167 18.3334 18.3251 16.5251 18.3251 13.4917V6.50841C18.3334 3.47508 16.5251 1.66675 13.4917 1.66675ZM13.3334 10.6251H10.6251V13.3334C10.6251 13.6751 10.3417 13.9584 10.0001 13.9584C9.65841 13.9584 9.37508 13.6751 9.37508 13.3334V10.6251H6.66675C6.32508 10.6251 6.04175 10.3417 6.04175 10.0001C6.04175 9.65842 6.32508 9.37508 6.66675 9.37508H9.37508V6.66675C9.37508 6.32508 9.65841 6.04175 10.0001 6.04175C10.3417 6.04175 10.6251 6.32508 10.6251 6.66675V9.37508H13.3334C13.6751 9.37508 13.9584 9.65842 13.9584 10.0001C13.9584 10.3417 13.6751 10.6251 13.3334 10.6251Z" fill="#0D6EFD"/>
</svg>
