<svg width="20" height="20" viewBox="0 0 20 20" fill="none" xmlns="http://www.w3.org/2000/svg">
  <path d="M3.35008 4.97508C2.29175 6.37508 1.66675 8.11675 1.66675 10.0001C1.66675 14.6001 5.40008 18.3334 10.0001 18.3334C14.6001 18.3334 18.3334 14.6001 18.3334 10.0001C18.3334 5.40008 14.6001 1.66675 10.0001 1.66675" stroke="#131414" stroke-width="1.5" stroke-linecap="round" stroke-linejoin="round" />
  <path d="M4.16675 10.0001C4.16675 13.2251 6.77508 15.8334 10.0001 15.8334C13.2251 15.8334 15.8334 13.2251 15.8334 10.0001C15.8334 6.77508 13.2251 4.16675 10.0001 4.16675" stroke="#131414" stroke-width="1.5" stroke-linecap="round" stroke-linejoin="round" />
  <path d="M10 13.3334C11.8417 13.3334 13.3333 11.8417 13.3333 10.0001C13.3333 8.15841 11.8417 6.66675 10 6.66675" stroke="#131414" stroke-width="1.5" stroke-linecap="round" stroke-linejoin="round" />
</svg>