<svg width="20" height="20" viewBox="0 0 20 20" fill="none" xmlns="http://www.w3.org/2000/svg">
<path d="M6.66675 1.66675V4.16675" stroke="#242626" stroke-width="1.5" stroke-miterlimit="10" stroke-linecap="round" stroke-linejoin="round"/>
<path d="M13.3333 1.66675V4.16675" stroke="#242626" stroke-width="1.5" stroke-miterlimit="10" stroke-linecap="round" stroke-linejoin="round"/>
<path d="M2.91675 7.57495H17.0834" stroke="#242626" stroke-width="1.5" stroke-miterlimit="10" stroke-linecap="round" stroke-linejoin="round"/>
<path d="M16.0083 13.1416L13.0583 16.0916C12.9416 16.2082 12.8333 16.4249 12.8083 16.5832L12.6499 17.7082C12.5916 18.1166 12.875 18.3999 13.2833 18.3416L14.4083 18.1833C14.5666 18.1583 14.7916 18.0499 14.9 17.9332L17.85 14.9833C18.3583 14.4749 18.6 13.8833 17.85 13.1333C17.1083 12.3916 16.5166 12.6332 16.0083 13.1416Z" stroke="#242626" stroke-width="1.5" stroke-miterlimit="10" stroke-linecap="round" stroke-linejoin="round"/>
<path d="M15.5833 13.5667C15.8333 14.4667 16.5333 15.1667 17.4333 15.4167" stroke="#242626" stroke-width="1.5" stroke-miterlimit="10" stroke-linecap="round" stroke-linejoin="round"/>
<path d="M10 18.3334H6.66667C3.75 18.3334 2.5 16.6667 2.5 14.1667V7.08341C2.5 4.58341 3.75 2.91675 6.66667 2.91675H13.3333C16.25 2.91675 17.5 4.58341 17.5 7.08341V10.0001" stroke="#242626" stroke-width="1.5" stroke-miterlimit="10" stroke-linecap="round" stroke-linejoin="round"/>
<path d="M9.99632 11.4167H10.0038" stroke="#242626" stroke-width="2" stroke-linecap="round" stroke-linejoin="round"/>
<path d="M6.91185 11.4167H6.91933" stroke="#242626" stroke-width="2" stroke-linecap="round" stroke-linejoin="round"/>
<path d="M6.91185 13.9167H6.91933" stroke="#242626" stroke-width="2" stroke-linecap="round" stroke-linejoin="round"/>
</svg>
