<svg width="16" height="16" viewBox="0 0 16 16" fill="none" xmlns="http://www.w3.org/2000/svg">
<path d="M5.3335 1.33398V3.33398" stroke="#242626" stroke-miterlimit="10" stroke-linecap="round" stroke-linejoin="round"/>
<path d="M10.6665 1.33398V3.33398" stroke="#242626" stroke-miterlimit="10" stroke-linecap="round" stroke-linejoin="round"/>
<path d="M2.3335 6.06055H13.6668" stroke="#242626" stroke-miterlimit="10" stroke-linecap="round" stroke-linejoin="round"/>
<path d="M12.0002 15.3333C13.4729 15.3333 14.6668 14.1394 14.6668 12.6667C14.6668 11.1939 13.4729 10 12.0002 10C10.5274 10 9.3335 11.1939 9.3335 12.6667C9.3335 14.1394 10.5274 15.3333 12.0002 15.3333Z" stroke="#242626" stroke-miterlimit="10" stroke-linecap="round" stroke-linejoin="round"/>
<path d="M12.9935 12.6992H11.0068" stroke="#242626" stroke-miterlimit="10" stroke-linecap="round" stroke-linejoin="round"/>
<path d="M12 11.7266V13.7199" stroke="#242626" stroke-miterlimit="10" stroke-linecap="round" stroke-linejoin="round"/>
<path d="M14 5.66732V10.9073C13.5133 10.354 12.8 10.0007 12 10.0007C10.5267 10.0007 9.33333 11.194 9.33333 12.6673C9.33333 13.1673 9.47333 13.6406 9.72 14.0406C9.86 14.2806 10.04 14.494 10.2467 14.6673H5.33333C3 14.6673 2 13.334 2 11.334V5.66732C2 3.66732 3 2.33398 5.33333 2.33398H10.6667C13 2.33398 14 3.66732 14 5.66732Z" stroke="#242626" stroke-miterlimit="10" stroke-linecap="round" stroke-linejoin="round"/>
<path d="M7.99715 9.13411H8.00314" stroke="#242626" stroke-linecap="round" stroke-linejoin="round"/>
<path d="M5.52938 9.13411H5.53537" stroke="#242626" stroke-linecap="round" stroke-linejoin="round"/>
<path d="M5.52938 11.1341H5.53537" stroke="#242626" stroke-linecap="round" stroke-linejoin="round"/>
</svg>
