<svg width="21" height="20" viewBox="0 0 21 20" fill="none" xmlns="http://www.w3.org/2000/svg">
  <path d="M15.9163 16.25H12.583" stroke="#0D6EFD" stroke-width="1.5" stroke-linecap="round" stroke-linejoin="round" />
  <path d="M14.25 17.9166V14.5833" stroke="#0D6EFD" stroke-width="1.5" stroke-linecap="round" stroke-linejoin="round" />
  <path d="M10.6332 9.05841C10.5498 9.05008 10.4498 9.05008 10.3582 9.05841C8.37484 8.99175 6.79984 7.36675 6.79984 5.36675C6.7915 3.32508 8.44984 1.66675 10.4915 1.66675C12.5332 1.66675 14.1915 3.32508 14.1915 5.36675C14.1915 7.36675 12.6082 8.99175 10.6332 9.05841Z" stroke="#0D6EFD" stroke-width="1.5" stroke-linecap="round" stroke-linejoin="round" />
  <path d="M10.4912 18.1751C8.97454 18.1751 7.46621 17.7917 6.31621 17.0251C4.29954 15.6751 4.29954 13.4751 6.31621 12.1334C8.60788 10.6001 12.3662 10.6001 14.6579 12.1334" stroke="#0D6EFD" stroke-width="1.5" stroke-linecap="round" stroke-linejoin="round" />
</svg>