<svg width="126" height="40" viewBox="0 0 126 40" fill="none" xmlns="http://www.w3.org/2000/svg">
<g clip-path="url(#clip0_430_3281)">
<path d="M89.3611 37.225C90.1201 37.225 90.5691 36.65 90.5691 35.751C90.5691 34.819 90.0871 34.277 89.3771 34.277C88.9711 34.277 88.6891 34.457 88.4781 34.743H88.4681V33.27H88.0281V37.143H88.4681V36.775H88.4781C88.7061 37.089 88.9821 37.225 89.3611 37.225ZM89.3291 36.856C88.7331 36.856 88.4401 36.385 88.4401 35.756C88.4401 35.15 88.7221 34.651 89.3341 34.651C89.8651 34.651 90.1201 35.128 90.1201 35.756C90.1201 36.39 89.8651 36.856 89.3291 36.856ZM91.3121 38.07C91.6531 38.07 91.8701 37.95 92.0971 37.37L93.2951 34.342H92.8291L92.1891 36.087C92.1031 36.32 92.0051 36.634 92.0051 36.634H91.9951C91.9951 36.634 91.8911 36.32 91.8051 36.087L91.1441 34.342H90.6671L91.7611 37.062L91.6531 37.338C91.5451 37.609 91.4201 37.68 91.2361 37.68C91.1333 37.6852 91.0308 37.6646 90.9381 37.62H90.9161V38.01C91.0361 38.059 91.1441 38.07 91.3121 38.07ZM94.4181 37.143H95.1551V33.27H94.4181V37.143ZM96.9571 37.225C97.8181 37.225 98.4091 36.585 98.4091 35.756C98.4091 34.927 97.8191 34.288 96.9571 34.288C96.0961 34.288 95.5051 34.928 95.5051 35.756C95.5051 36.586 96.0951 37.225 96.9571 37.225ZM96.9571 36.661C96.5021 36.661 96.2531 36.298 96.2531 35.756C96.2531 35.215 96.5021 34.846 96.9571 34.846C97.4071 34.846 97.6611 35.215 97.6611 35.756C97.6611 36.298 97.4071 36.661 96.9571 36.661ZM99.9761 38.091C100.388 38.091 100.745 37.994 100.978 37.777C101.184 37.587 101.309 37.322 101.309 36.932V34.364H100.599V34.657H100.588C100.42 34.424 100.166 34.288 99.8181 34.288C99.1151 34.288 98.6161 34.819 98.6161 35.648C98.6161 36.488 99.2231 36.975 99.8411 36.975C100.193 36.975 100.404 36.835 100.566 36.65H100.583V36.954C100.583 37.333 100.383 37.534 99.9651 37.534C99.6241 37.534 99.4671 37.398 99.4071 37.224H98.6761C98.7511 37.766 99.2171 38.091 99.9761 38.091ZM99.9661 36.385C99.5861 36.385 99.3361 36.109 99.3361 35.637C99.3361 35.171 99.5861 34.879 99.9601 34.879C100.404 34.879 100.621 35.225 100.621 35.632C100.621 36.044 100.431 36.385 99.9651 36.385H99.9661ZM103.1 37.225C103.961 37.225 104.552 36.585 104.552 35.756C104.552 34.927 103.961 34.288 103.1 34.288C102.238 34.288 101.648 34.928 101.648 35.756C101.648 36.586 102.238 37.225 103.1 37.225ZM103.1 36.661C102.645 36.661 102.395 36.298 102.395 35.756C102.395 35.215 102.645 34.846 103.1 34.846C103.549 34.846 103.804 35.215 103.804 35.756C103.804 36.298 103.549 36.661 103.1 36.661ZM104.894 37.143H105.631V34.364H104.894V37.143ZM104.894 33.931H105.631V33.27H104.894V33.931ZM106.106 38.053H106.843V36.83H106.853C107.011 37.069 107.265 37.226 107.655 37.226C108.37 37.226 108.858 36.656 108.858 35.757C108.858 34.89 108.387 34.289 107.65 34.289C107.489 34.2864 107.331 34.3237 107.188 34.3975C107.045 34.4713 106.923 34.5794 106.832 34.712H106.816V34.365H106.106V38.055V38.053ZM107.498 36.613C107.059 36.613 106.826 36.282 106.826 35.778C106.826 35.28 107.011 34.884 107.471 34.884C107.926 34.884 108.11 35.252 108.11 35.778C108.11 36.304 107.872 36.613 107.498 36.613ZM110.328 37.225C111.021 37.225 111.498 36.889 111.498 36.331C111.498 35.681 110.983 35.551 110.517 35.453C110.122 35.372 109.754 35.35 109.754 35.112C109.754 34.912 109.943 34.802 110.23 34.802C110.545 34.802 110.734 34.912 110.767 35.209H111.433C111.379 34.651 110.973 34.289 110.241 34.289C109.607 34.289 109.109 34.575 109.109 35.177C109.109 35.783 109.596 35.919 110.095 36.017C110.474 36.092 110.826 36.119 110.826 36.385C110.826 36.58 110.642 36.705 110.317 36.705C109.987 36.705 109.759 36.564 109.71 36.244H109.028C109.071 36.834 109.521 37.225 110.328 37.225ZM114.296 37.143V34.364H113.559V35.968C113.559 36.336 113.347 36.596 113.001 36.596C112.687 36.596 112.54 36.417 112.54 36.092V34.364H111.809V36.217C111.809 36.824 112.156 37.219 112.773 37.219C113.163 37.219 113.38 37.073 113.57 36.819H113.586V37.143H114.296ZM114.772 37.143H115.509V35.53C115.509 35.161 115.709 34.923 116.007 34.923C116.278 34.923 116.435 35.086 116.435 35.4V37.144H117.172V35.53C117.172 35.161 117.362 34.923 117.671 34.923C117.942 34.923 118.099 35.086 118.099 35.4V37.144H118.836V35.275C118.836 34.668 118.505 34.289 117.92 34.289C117.568 34.289 117.275 34.473 117.086 34.777H117.075C117.008 34.6294 116.9 34.5046 116.763 34.4178C116.626 34.3311 116.467 34.2863 116.305 34.289C116.143 34.2849 115.982 34.3245 115.84 34.4037C115.698 34.4828 115.58 34.5987 115.498 34.739H115.482V34.365H114.772V37.145V37.143Z" fill="#626767"/>
<path d="M118.981 2.14918C118.981 0.966183 119.94 0.00618262 121.123 0.00618262H122.552C123.12 0.00618262 123.665 0.231962 124.067 0.633853C124.469 1.03574 124.695 1.58082 124.695 2.14918C124.695 2.71754 124.469 3.26262 124.067 3.66451C123.665 4.0664 123.12 4.29218 122.552 4.29218H121.123C120.842 4.29218 120.563 4.23674 120.303 4.12904C120.043 4.02133 119.807 3.86346 119.608 3.66445C119.409 3.46544 119.251 3.22919 119.144 2.9692C119.036 2.7092 118.981 2.43056 118.981 2.14918ZM58.99 14.2902C58.99 22.1782 52.596 28.5732 44.707 28.5732C36.819 28.5732 30.424 22.1782 30.424 14.2902C30.424 6.40018 36.819 0.00718262 44.707 0.00718262C52.596 0.00718262 58.99 6.40018 58.99 14.2902ZM27.638 14.2192C28.428 14.2192 29.074 14.8592 28.995 15.6452C28.725 18.335 27.6972 20.893 26.0311 23.0218C24.3649 25.1507 22.1288 26.763 19.5827 27.6713C17.0365 28.5797 14.2848 28.7468 11.6475 28.1533C9.01009 27.5597 6.59531 26.2299 4.68376 24.3184C2.77222 22.4068 1.4424 19.9921 0.848871 17.3547C0.255341 14.7173 0.422467 11.9656 1.33083 9.41948C2.23919 6.87333 3.85148 4.63724 5.98032 2.97109C8.10917 1.30494 10.6671 0.277157 13.357 0.00718262C14.142 -0.0728174 14.783 0.575183 14.783 1.36318V12.7902C14.783 13.5802 15.423 14.2192 16.212 14.2192H27.638ZM78.987 31.4302C80.1234 31.4302 81.2133 31.8816 82.0169 32.6852C82.8205 33.4888 83.272 34.5787 83.272 35.7152C83.272 36.8516 82.8205 37.9415 82.0169 38.7451C81.2133 39.5487 80.1234 40.0002 78.987 40.0002H71.846C70.7095 40.0002 69.6196 39.5487 68.816 38.7451C68.0124 37.9415 67.561 36.8516 67.561 35.7152C67.561 34.5787 68.0124 33.4888 68.816 32.6852C69.6196 31.8816 70.7095 31.4302 71.846 31.4302H78.987ZM74.702 28.5732C82.591 28.5732 88.986 22.1782 88.986 14.2902C88.9894 11.8671 88.3736 9.48339 87.197 7.36518L89.557 5.00518C89.8288 4.73322 90.0444 4.41037 90.1915 4.05508C90.3385 3.69978 90.4142 3.319 90.4141 2.93448C90.414 2.54995 90.3382 2.1692 90.1909 1.81398C90.0437 1.45876 89.8279 1.13602 89.556 0.864183C89.284 0.592346 88.9612 0.37674 88.6059 0.229673C88.2506 0.0826069 87.8698 0.00696051 87.4853 0.00705338C87.1007 0.00714624 86.72 0.0829765 86.3648 0.230215C86.0095 0.377453 85.6868 0.593215 85.415 0.865183L83.355 2.92518C80.8697 1.02709 77.8281 0.00115079 74.701 0.00618262C66.814 0.00718262 60.42 6.40018 60.42 14.2902C60.42 22.1782 66.814 28.5732 74.702 28.5732ZM118.981 14.2902C118.981 22.1782 112.586 28.5732 104.697 28.5732C96.809 28.5732 90.414 22.1782 90.414 14.2902C90.414 6.40018 96.809 0.00718262 104.697 0.00718262C112.586 0.00718262 118.981 6.40118 118.981 14.2902Z" fill="#626767"/>
</g>
<defs>
<clipPath id="clip0_430_3281">
<rect width="125" height="40" fill="white" transform="translate(0.5)"/>
</clipPath>
</defs>
</svg>
