<svg width="60" height="60" viewBox="0 0 60 60" fill="none" xmlns="http://www.w3.org/2000/svg">
<g clip-path="url(#clip0_430_3286)">
<path d="M60 30C60 46.5686 46.5686 60 30 60C13.4314 60 0 46.5686 0 30C0 13.4314 13.4314 0 30 0C46.5686 0 60 13.4314 60 30Z" fill="#626767"/>
<path d="M52.2852 37.6602C53.2983 37.6602 54.0189 38.6448 53.6379 39.5835C49.85 48.9177 40.6937 55.5002 30 55.5002C19.3063 55.5002 10.15 48.9177 6.36201 39.5835C5.98103 38.6448 6.70164 37.6602 7.71476 37.6602H52.2852Z" fill="#EDEBDE"/>
<path d="M53.6379 20.4167C54.0189 21.3554 53.2983 22.34 52.2852 22.34H7.71475C6.70164 22.34 5.98103 21.3554 6.362 20.4167C10.15 11.0825 19.3063 4.5 30 4.5C40.6937 4.5 49.8499 11.0825 53.6379 20.4167Z" fill="#EDEBDE"/>
<path d="M52.3778 27.8623C54.0632 27.8623 54.8765 29.0382 54.8765 30.4002V32.9577H53.1128V30.704C53.1128 30.0867 52.8874 29.5771 52.2407 29.5771C51.5939 29.5771 51.3784 30.0867 51.3784 30.704V32.9577H49.6146V30.704C49.6146 30.0867 49.3991 29.5771 48.7523 29.5771C48.1056 29.5771 47.8802 30.0867 47.8802 30.704V32.9577H46.1165V30.4002C46.1165 29.0382 46.9298 27.8623 48.6152 27.8623C49.5362 27.8623 50.2025 28.2249 50.5063 28.8226C50.8297 28.2249 51.5352 27.8623 52.3778 27.8623Z" fill="#EDEBDE"/>
<path d="M42.9471 31.3902C43.5155 31.3902 43.7604 30.8709 43.7604 30.2535V28.0586H45.5242V30.4691C45.5242 31.9095 44.6815 33.105 42.9471 33.105C41.2127 33.105 40.3701 31.9095 40.3701 30.4691V28.0586H42.1338V30.2535C42.1338 30.8709 42.3788 31.3902 42.9471 31.3902Z" fill="#EDEBDE"/>
<path d="M37.7766 33.1147C36.6693 33.1147 35.954 32.7326 35.5327 31.9879L36.8065 31.2726C36.9829 31.5862 37.2474 31.7429 37.6884 31.7429C38.0509 31.7429 38.2175 31.6156 38.2175 31.4588C38.2175 30.8611 35.6307 31.4686 35.6307 29.5676C35.6307 28.6465 36.4146 27.9019 37.7472 27.9019C38.9133 27.9019 39.5502 28.4701 39.8343 29.0189L38.5605 29.744C38.4527 29.45 38.1195 29.2737 37.7864 29.2737C37.5316 29.2737 37.3944 29.3815 37.3944 29.5285C37.3944 30.136 39.9813 29.5774 39.9813 31.4196C39.9813 32.4484 38.9721 33.1147 37.7766 33.1147Z" fill="#EDEBDE"/>
<path d="M31.6144 35.2117H29.8506V30.4985C29.8506 28.9993 30.9775 27.9116 32.5453 27.9116C34.0738 27.9116 35.2399 29.0777 35.2399 30.4985C35.2399 32.0663 34.2013 33.105 32.6432 33.105C32.2807 33.105 31.9181 32.9972 31.6144 32.8306V35.2117ZM32.5453 31.449C33.1038 31.449 33.4761 31.0178 33.4761 30.5083C33.4761 29.989 33.1038 29.5676 32.5453 29.5676C31.9867 29.5676 31.6144 29.989 31.6144 30.5083C31.6144 31.0178 31.9867 31.449 32.5453 31.449Z" fill="#EDEBDE"/>
<path d="M28.0836 27.5389C27.5055 27.5389 27.0254 27.0588 27.0254 26.4807C27.0254 25.9025 27.5055 25.4224 28.0836 25.4224C28.6618 25.4224 29.142 25.9025 29.142 26.4807C29.142 27.0588 28.6618 27.5389 28.0836 27.5389ZM27.2018 28.0582H28.9656V32.9576H27.2018V28.0582Z" fill="#EDEBDE"/>
<path d="M23.8177 33.105C22.2891 33.105 21.123 31.9291 21.123 30.4985C21.123 29.0777 22.2891 27.9019 23.8177 27.9019C25.3463 27.9019 26.5124 29.0777 26.5124 30.4985C26.5124 31.9291 25.3463 33.105 23.8177 33.105ZM23.8177 31.449C24.3762 31.449 24.7486 31.0178 24.7486 30.5083C24.7486 29.989 24.3762 29.5579 23.8177 29.5579C23.2592 29.5579 22.8868 29.989 22.8868 30.5083C22.8868 31.0178 23.2592 31.449 23.8177 31.449Z" fill="#EDEBDE"/>
<path d="M17.7928 35.3587C16.5777 35.3587 15.6959 34.8197 15.2451 33.8595L16.7051 33.0756C16.8619 33.4087 17.1559 33.7517 17.7634 33.7517C18.4003 33.7517 18.8216 33.3499 18.8706 32.6444C18.6355 32.8502 18.2631 33.007 17.7046 33.007C16.3426 33.007 15.2451 31.9585 15.2451 30.4887C15.2451 29.0679 16.4111 27.9116 17.9398 27.9116C19.5075 27.9116 20.6344 28.9993 20.6344 30.4985V32.4387C20.6344 34.2024 19.4096 35.3587 17.7928 35.3587ZM17.9104 31.351C18.4395 31.351 18.8412 30.9884 18.8412 30.4495C18.8412 29.9204 18.4395 29.5676 17.9104 29.5676C17.391 29.5676 16.9795 29.9204 16.9795 30.4495C16.9795 30.9884 17.391 31.351 17.9104 31.351Z" fill="#EDEBDE"/>
<path d="M12.253 33.105C10.7244 33.105 9.55835 31.9291 9.55835 30.4985C9.55835 29.0777 10.7244 27.9019 12.253 27.9019C13.7816 27.9019 14.9477 29.0777 14.9477 30.4985C14.9477 31.9291 13.7816 33.105 12.253 33.105ZM12.253 31.449C12.8116 31.449 13.1839 31.0178 13.1839 30.5083C13.1839 29.989 12.8116 29.5579 12.253 29.5579C11.6945 29.5579 11.3221 29.989 11.3221 30.5083C11.3221 31.0178 11.6945 31.449 12.253 31.449Z" fill="#EDEBDE"/>
<path d="M6.34669 26.3438V31.2921H9.26668V32.9578H6.10173C4.98467 32.9578 4.53394 32.3699 4.53394 31.439V26.3438H6.34669Z" fill="#EDEBDE"/>
<path d="M25.5 4.89581C26.9608 4.63571 28.4645 4.5 30.0001 4.5C31.5355 4.5 33.0393 4.63571 34.5 4.8958V22.34H25.5V4.89581Z" fill="#626767"/>
<path d="M34.5002 37.6602H25.4994C25.4805 41.5736 24.7675 45.453 23.3931 49.1181L21.5388 54.0629C24.1864 54.9939 27.034 55.5002 29.9999 55.5002C32.9657 55.5002 35.8133 54.9939 38.4608 54.0629L36.6065 49.1181C35.2322 45.453 34.5191 41.5736 34.5002 37.6602Z" fill="#626767"/>
<path d="M34.5 4.896C37.7556 5.47566 40.7975 6.67313 43.5 8.36286V22.3402H34.5V4.896Z" fill="#242626"/>
<path d="M38.4611 54.0629C42.5541 52.6237 46.1693 50.1698 49.0044 47.003L48.562 46.7214C45.4543 44.7438 43.5549 41.3362 43.5012 37.6602H34.5005C34.5194 41.5736 35.2324 45.453 36.6069 49.1181L38.4611 54.0629Z" fill="#242626"/>
<path d="M16.5 8.36286C19.2025 6.67314 22.2443 5.47566 25.5 4.896V22.3402H16.5V8.36286Z" fill="#131414"/>
<path d="M16.4986 37.6602H25.4994C25.4806 41.5569 24.7735 45.4199 23.4106 49.0712L21.5388 54.0629C17.4457 52.6237 13.8306 50.1698 10.9954 47.003L11.4378 46.7214C14.5455 44.7438 16.445 41.3362 16.4986 37.6602Z" fill="#131414"/>
</g>
<defs>
<clipPath id="clip0_430_3286">
<rect width="60" height="60" fill="white"/>
</clipPath>
</defs>
</svg>
