<svg width="209" height="60" viewBox="0 0 209 60" fill="none" xmlns="http://www.w3.org/2000/svg">
<path fill-rule="evenodd" clip-rule="evenodd" d="M34.7016 4.85771C32.7532 2.91015 29.595 2.91079 27.6475 4.85916L11.3935 21.1197L11.3797 21.1157L11.3283 21.1212C11.3495 21.1314 11.3703 21.1414 11.3906 21.1516C8.53932 21.4503 7.32957 22.3071 7.31587 23.4074C7.3207 23.8167 7.48863 24.2588 7.7971 24.7177L7.78227 24.7325C10.3744 28.6421 23.2156 33.7993 32.3003 30.3051C25.4916 33.7094 9.45685 34.3842 4.74718 27.7743C3.72439 28.8807 3.29646 30.3348 3.45761 31.7322C4.70178 38.5897 18.6116 40.4605 32.5216 30.5249L35.5316 33.5349C31.786 37.383 26.2534 59.735 34.4743 56.3223C34.6693 56.1899 34.8348 56.0714 35.0599 55.9011L35.4263 55.5552C35.4052 55.5604 35.3842 55.5654 35.3633 55.5703L57.3807 34.7846C59.425 32.8546 59.4713 29.6173 57.4829 27.6296L34.7016 4.85771ZM32.304 11.6316L33.0565 8.62154L33.809 11.6316L36.0665 12.3841L33.809 13.1366L33.0565 16.1467L32.304 13.1366L30.0464 12.3841L32.304 11.6316ZM22.9898 21.4577L23.4914 19.451L23.9931 21.4577L25.4982 21.9594L23.9931 22.461L23.4914 24.4677L22.9898 22.461L21.4848 21.9594L22.9898 21.4577ZM40.4623 38.3841L39.9606 40.3907L38.4557 40.8925L39.9606 41.3941L40.4623 43.4007L40.964 41.3941L42.469 40.8925L40.964 40.3907L40.4623 38.3841Z" fill="#131414"/>
<path d="M71.6061 16.0117H66.9338V37.0942H79.8683V32.9632H71.6061V16.0117Z" fill="#131414"/>
<path d="M80.3145 29.9431C80.3145 34.4446 83.3344 37.436 87.8927 37.436C92.4227 37.436 95.4425 34.4446 95.4425 29.9431C95.4425 25.4417 92.4227 22.4219 87.8927 22.4219C83.3344 22.4219 80.3145 25.4417 80.3145 29.9431ZM84.7304 29.9147C84.7304 27.7779 85.9839 26.3534 87.8927 26.3534C89.7731 26.3534 91.0267 27.7779 91.0267 29.9147C91.0267 32.0799 89.7731 33.5044 87.8927 33.5044C85.9839 33.5044 84.7304 32.0799 84.7304 29.9147Z" fill="#131414"/>
<path d="M96.1482 29.7151C96.1482 34.017 98.9403 36.923 102.9 36.923C104.809 36.923 106.462 36.2392 107.288 35.1282V37.094C107.288 39.0597 106.063 40.3704 103.897 40.3704C101.96 40.3704 100.621 39.4586 100.536 37.8347H96.0913C96.49 41.7378 99.51 44.3589 103.641 44.3589C108.513 44.3589 111.59 41.1965 111.59 36.1822V22.8491H107.63L107.402 24.302C106.604 23.1339 104.923 22.3647 102.986 22.3647C98.9973 22.3647 96.1482 25.3561 96.1482 29.7151ZM100.593 29.6011C100.593 27.5499 101.96 26.1823 103.698 26.1823C105.721 26.1823 107.202 27.5214 107.202 29.6011C107.202 31.6809 105.749 33.1054 103.727 33.1054C101.989 33.1054 100.593 31.6809 100.593 29.6011Z" fill="#131414"/>
<path d="M112.869 29.9431C112.869 34.4446 115.888 37.436 120.447 37.436C124.977 37.436 127.997 34.4446 127.997 29.9431C127.997 25.4417 124.977 22.4219 120.447 22.4219C115.888 22.4219 112.869 25.4417 112.869 29.9431ZM117.285 29.9147C117.285 27.7779 118.538 26.3534 120.447 26.3534C122.327 26.3534 123.581 27.7779 123.581 29.9147C123.581 32.0799 122.327 33.5044 120.447 33.5044C118.538 33.5044 117.285 32.0799 117.285 29.9147Z" fill="#131414"/>
<path d="M131.78 20.6269C133.147 20.6269 134.258 19.5158 134.258 18.1198C134.258 16.7237 133.147 15.6411 131.78 15.6411C130.383 15.6411 129.272 16.7237 129.272 18.1198C129.272 19.5158 130.383 20.6269 131.78 20.6269ZM129.557 37.094H133.973V22.8491H129.557V37.094Z" fill="#131414"/>
<path d="M136.543 43.9314H140.873V35.6694C141.7 36.752 143.58 37.4927 145.547 37.4927C149.791 37.4927 152.356 34.2449 152.241 29.7435C152.127 25.1566 149.478 22.3931 145.518 22.3931C143.495 22.3931 141.587 23.2762 140.789 24.5868L140.56 22.8489H136.543V43.9314ZM140.959 29.9713C140.959 27.8347 142.384 26.4102 144.436 26.4102C146.515 26.4102 147.826 27.8631 147.826 29.9713C147.826 32.0797 146.515 33.5326 144.436 33.5326C142.384 33.5326 140.959 32.1081 140.959 29.9713Z" fill="#131414"/>
<path d="M152.709 32.5924C152.823 35.4699 155.103 37.4642 158.692 37.4642C162.14 37.4642 164.533 35.6408 164.533 32.7064C164.533 30.5982 163.278 29.2022 160.942 28.6324L158.407 28.0055C157.495 27.7777 156.926 27.5498 156.926 26.8091C156.926 26.0683 157.524 25.5839 158.407 25.5839C159.404 25.5839 160.059 26.2392 160.031 27.2079H163.992C163.877 24.245 161.627 22.3931 158.493 22.3931C155.33 22.3931 152.966 24.2734 152.966 27.1224C152.966 29.0313 154.02 30.5982 156.84 31.3389L159.347 31.9941C160.088 32.1935 160.401 32.5354 160.401 33.0198C160.401 33.732 159.746 34.1879 158.635 34.1879C157.353 34.1879 156.669 33.5896 156.669 32.5924H152.709Z" fill="#131414"/>
<path d="M171.248 37.4643C172.986 37.4643 174.724 36.6667 175.607 35.4986L175.893 37.094H180.023V22.8491H175.636V30.2565C175.636 32.3932 175.008 33.5613 172.986 33.5613C171.419 33.5613 170.393 32.849 170.393 30.1995V22.8491H166.006V31.7949C166.006 35.1853 167.886 37.4643 171.248 37.4643Z" fill="#131414"/>
<path d="M186.981 37.094V29.3163C186.981 26.9231 188.263 26.2393 189.517 26.2393C190.912 26.2393 191.824 27.0941 191.824 28.8604V37.094H196.154V29.3163C196.154 26.8946 197.408 26.2109 198.661 26.2109C200.057 26.2109 200.998 27.0655 200.998 28.8604V37.094H205.272V27.7778C205.272 24.53 203.562 22.3647 199.886 22.3647C197.836 22.3647 196.154 23.3619 195.414 24.9003C194.559 23.3619 193.077 22.3647 190.713 22.3647C189.146 22.3647 187.693 23.0769 186.839 24.2165L186.668 22.8491H182.564V37.094H186.981Z" fill="#131414"/>
<path fill-rule="evenodd" clip-rule="evenodd" d="M59.0762 6.84961C54.3692 6.84961 49.9053 8.94036 46.8919 12.5564L36.1714 25.4211L42.3619 16.1353L32.0862 20.5392C30.7812 21.0985 30.4538 22.7987 31.4576 23.8026L34.7644 27.1093L33.0761 29.1353L36.7905 32.8496L38.8164 31.1612L42.1232 34.468C43.127 35.4719 44.8273 35.1445 45.3865 33.8396L49.7904 23.5639L40.5047 29.7544L53.3694 19.0338C56.9854 16.0205 59.0762 11.5566 59.0762 6.84961ZM48.8619 17.0641C49.8875 18.0897 51.5505 18.0897 52.5762 17.0641C53.6018 16.0384 53.6018 14.3755 52.5762 13.3499C51.5505 12.3241 49.8875 12.3241 48.8619 13.3499C47.8362 14.3755 47.8362 16.0384 48.8619 17.0641Z" fill="#87878D"/>
<path opacity="0.6" d="M4.62769 27.6011C7.08698 36.0269 22.039 35.5876 32.2974 30.3062C25.4282 33.7387 9.17858 34.3942 4.62769 27.6011Z" fill="#87878D"/>
<path opacity="0.6" d="M34.4742 56.3221C27.5471 59.1977 30.3854 43.7798 33.6911 36.5537C31.2815 42.9766 29.2245 57.1354 35.4263 55.5551L35.0599 55.901C34.8348 56.0713 34.6692 56.1898 34.4742 56.3221Z" fill="#87878D"/>
</svg>
