<svg width="31" height="40" viewBox="0 0 31 40" fill="none" xmlns="http://www.w3.org/2000/svg">
<g clip-path="url(#clip0_430_3334)">
<path d="M26.394 7.66415L30.568 11.8668C30.714 11.9829 30.822 12.1396 30.878 12.3171C30.963 13.3515 30.18 13.4081 29.38 13.4659C29.034 13.4909 28.685 13.5162 28.402 13.621C26.998 14.0009 25.746 14.8033 24.815 15.9193C23.883 17.0353 23.318 18.4109 23.195 19.8593C23.105 20.0266 22.969 20.1643 22.802 20.2558C22.636 20.3474 22.447 20.3888 22.257 20.3753C22.037 20.3558 21.831 20.2595 21.675 20.1032L20.305 18.7238C20.315 18.8182 20.315 18.9117 20.315 18.9869V19.8968C20.315 19.9543 20.317 20.0097 20.31 20.065C20.301 20.127 20.28 20.1888 20.231 20.2532V20.3377C20.231 20.3808 20.236 20.4209 20.241 20.4616C20.251 20.5449 20.262 20.6307 20.231 20.7505C20.201 20.8622 20.198 20.9925 20.194 21.1088C20.193 21.1779 20.191 21.2421 20.184 21.2945C20.174 21.3672 20.174 21.4448 20.168 21.5223C20.162 21.5949 20.15 21.6674 20.118 21.7354C20.074 21.8306 20.059 21.9215 20.055 22.0139C20.052 22.0581 20.052 22.1026 20.052 22.1482L19.996 22.439L17.867 32.5891L17.698 33.3489L17.632 34.4559L16.694 39.2495L16.544 40H-59.3752L-59.7411 39.6341L-59.8068 39.9531H-67.9306L-72.4522 35.4034L-72.0207 33.3489H-74.5723L-76.1576 31.7448C-78.1251 33.1775 -80.5066 33.9285 -82.94 33.8837C-85.5558 33.9866 -88.1059 33.0488 -90.0319 31.2758L-92.4991 28.7899L-93.0338 31.2851C-93.0994 31.6416 -93.1839 31.9794 -93.2777 32.3077L-93.3621 32.6173L-93.5028 33.0675C-93.5144 33.1066 -93.5301 33.1444 -93.5497 33.1801C-93.6894 33.5937 -93.8554 33.9979 -94.0469 34.3902C-94.0419 34.4054 -94.0419 34.4219 -94.0469 34.4371C-94.0715 34.4891 -94.0997 34.5392 -94.1314 34.5872C-94.273 34.8675 -94.4295 35.1399 -94.6004 35.4034C-94.6321 35.4513 -94.6603 35.5015 -94.6848 35.5535L-94.788 35.666C-95.0173 35.9949 -95.268 36.3082 -95.5385 36.6041C-95.6127 36.6783 -95.6869 36.748 -95.7623 36.8164C-95.8393 36.8864 -95.9175 36.9551 -95.9982 37.0262L-96.2045 37.2232C-96.3346 37.3313 -96.4677 37.4356 -96.6036 37.5361C-96.7157 37.619 -96.8297 37.6992 -96.9456 37.7767C-98.8789 38.9222 -101.109 39.4674 -103.353 39.3433C-106.448 39.3433 -108.925 38.4427 -110.492 36.8668L-114.901 32.4296C-116.662 33.4262 -118.656 33.9377 -120.679 33.9118C-123.287 33.9925 -125.822 33.042 -127.734 31.2664L-130.201 28.7805L-130.998 32.6173L-131.158 33.3771H-139.46L-144 28.7992L-143.765 27.6923L-138.775 3.72418L-138.625 2.97372H-130.295L-130.079 3.18013V2.97372H-73.9531L-73.7467 3.18013V2.97372H-65.6229L-61.0826 7.55158L-61.3077 8.64913L-61.5516 9.8499H-59.2158L-58.8499 10.2158C-57.8221 9.61344 -56.6547 9.29005 -55.4634 9.27769C-54.5874 9.26039 -53.7175 9.42678 -52.9097 9.76608C-52.1018 10.1054 -51.374 10.61 -50.773 11.2476L-50.895 11.1069L-48.6905 13.3302C-47.349 10.8068 -44.3378 9.27769 -40.248 9.27769C-37.077 9.27769 -34.741 10.0844 -33.325 11.5478L-31.73 13.152L-31.195 10.5722L-31.036 9.82173H-22.903L-20.576 12.1576L-20.248 10.5816L-20.088 9.83112H-4.084L-3.653 10.2627C-2.569 9.62306 -1.328 9.29818 -0.0690002 9.32458C0.688004 9.29503 1.442 9.43365 2.14 9.73047C2.83701 10.0273 3.46001 10.475 3.964 11.0413C3.938 11.0118 3.91299 10.9823 3.888 10.9533C3.843 10.8995 3.798 10.847 3.75 10.7984L4.565 11.6135C5.27501 10.8782 6.12901 10.2959 7.07201 9.90235C8.01601 9.50877 9.03 9.3121 10.052 9.32458C10.595 9.2912 11.137 9.3374 11.663 9.46033L10.775 8.56473C10.654 8.43528 10.572 8.27421 10.539 8.10021C10.506 7.92621 10.523 7.74631 10.587 7.58147C10.652 7.41657 10.762 7.27343 10.905 7.16854C11.048 7.06365 11.217 7.00129 11.394 6.98875H12.107C12.299 6.97043 12.49 6.94226 12.679 6.9043C13.676 6.69474 14.614 6.26624 15.425 5.6497C16.237 5.03323 16.901 4.24418 17.37 3.33959C17.411 3.26962 17.448 3.19765 17.482 3.12384V3.07695C17.805 2.38215 18.001 1.63581 18.064 0.872416C18.08 0.635203 18.187 0.413106 18.361 0.251186C18.535 0.0892079 18.764 -0.00056984 19.002 2.72188e-06H19.077C19.219 0.0135152 19.357 0.0594347 19.479 0.134211C19.601 0.209045 19.704 0.310732 19.781 0.431543C20.456 1.08821 24.208 4.90617 24.208 4.90617C24.521 5.24238 24.498 5.67885 24.474 6.12046C24.459 6.39352 24.444 6.66858 24.508 6.92308C24.679 6.95371 24.852 6.9769 25.024 6.99259C25.19 7.00753 25.356 7.01566 25.522 7.01687C25.716 7.02093 25.905 7.0854 26.061 7.2014C26.217 7.31735 26.334 7.4791 26.394 7.66415Z" fill="#626767"/>
<path d="M-101.064 10.7507H-95.1352L-98.456 26.5011C-99.0657 29.4842 -100.229 31.1916 -101.993 32.4017C-103.776 33.4368 -105.825 33.926 -107.884 33.8088C-111.805 33.8088 -115.567 32.1672 -115.942 28.1803H-109.976C-109.788 29.1184 -108.925 29.6531 -107.612 29.6531C-105.839 29.6531 -105.023 28.5837 -104.657 26.9045L-104.3 25.169H-104.432C-104.955 25.7445 -105.59 26.2075 -106.298 26.53C-107.006 26.8525 -107.772 27.0278 -108.55 27.0452C-112.002 27.0452 -114.741 24.2966 -114.685 20.2722C-114.61 15.5818 -111.552 10.2535 -106.42 10.2535C-105.448 10.188 -104.477 10.4023 -103.623 10.8711C-102.768 11.3398 -102.066 12.0435 -101.599 12.8989H-101.495L-101.064 10.7507ZM-106.158 22.6456C-103.878 22.6456 -102.612 20.019 -102.574 17.7582C-102.574 16.2479 -103.165 14.7 -104.91 14.7C-107.293 14.7 -108.503 17.3548 -108.54 19.6343C-108.54 21.1728 -107.949 22.6456 -106.205 22.6456M-39.6 23.1522C-39.6 24.1559 -40.464 24.5593 -41.599 24.5593C-43.475 24.5593 -44.1033 23.6212 -44.1127 22.3079H-50.0132C-50.1164 27.2047 -45.7449 28.4148 -41.861 28.4148C-36.899 28.4148 -33.681 26.2666 -33.615 21.9796C-33.615 18.5555 -36.533 17.5143 -39.403 16.8482C-41.608 16.3417 -42.574 15.9758 -42.565 15.1409C-42.555 14.306 -41.57 13.9683 -40.604 13.9683C-39.394 13.9683 -38.569 14.3998 -38.484 15.5068H-32.752C-32.818 11.4167 -36.505 10.216 -40.257 10.216C-44.8162 10.216 -48.3716 12.2891 -48.4279 16.2103C-48.4279 19.2966 -46.3453 20.4317 -43.203 21.2385C-41.186 21.7732 -39.582 21.942 -39.6 23.1522ZM4.23599 13.2929H4.133C3.87799 12.3691 3.314 11.5604 2.536 11.0007C1.758 10.4411 0.811996 10.1642 -0.145004 10.216C-2.696 10.216 -4.25299 11.4824 -5.726 13.3961H-5.82899L-5.285 10.7507H-11.252L-14.826 27.8426H-8.58701L-6.711 18.6212C-6.28 16.6137 -5.257 15.2066 -3.709 15.2066C-2.161 15.2066 -1.955 16.4448 -2.274 17.9552L-4.338 27.8426H1.89999L3.77699 18.6212C4.20799 16.4824 5.231 15.2066 6.778 15.2066C8.326 15.2066 8.533 16.3792 8.214 17.9552L6.14999 27.8426H12.388L14.621 17.6831C15.559 13.3961 14.124 10.1784 10.006 10.1784C8.86 10.1737 7.73199 10.4563 6.724 11.0004C5.716 11.5445 4.86099 12.3327 4.23599 13.2929ZM-142.856 27.8426H-136.411L-131.43 3.87451H-137.865L-142.856 27.8426ZM-123.456 10.2441C-119.103 10.2441 -114.948 12.6268 -115.013 18.0208C-115.069 23.9214 -119.085 28.3398 -125.22 28.3398C-129.441 28.3398 -133.662 25.9946 -133.587 20.6287C-133.484 14.8689 -129.525 10.2441 -123.456 10.2441ZM-125.041 24.1559C-122.293 24.1559 -121.289 20.169 -121.289 17.8238C-121.289 16.1447 -121.805 14.503 -123.615 14.503C-126.336 14.503 -127.265 18.7244 -127.265 20.9008C-127.265 22.6456 -126.777 24.1559 -125.004 24.1559M-129.282 3.87451L-130.22 8.66813H-76.1014L-75.1633 3.87451H-129.282ZM-85.7543 10.2441C-81.4016 10.2441 -77.2459 12.6268 -77.3115 18.0208C-77.3678 23.9214 -81.3922 28.3398 -87.5273 28.3398C-91.7487 28.3398 -95.9701 25.9946 -95.8856 20.6287C-95.7543 14.8689 -91.7956 10.2441 -85.7543 10.2441ZM-87.3115 24.1559C-84.5629 24.1559 -83.5592 20.169 -83.5592 17.8238C-83.5592 16.1447 -84.0845 14.503 -85.895 14.503C-88.6061 14.503 -89.5442 18.7244 -89.5442 20.9008C-89.5442 22.6456 -89.0564 24.1559 -87.274 24.1559M-72.9494 3.87451L-73.8875 8.66813H-67.6586L-66.7205 3.87451H-72.9494ZM-77.94 27.8426H-71.7018L-68.1277 10.7507H-74.4035L-77.94 27.8426ZM-58.0339 28.4148C-59.0267 28.4853 -60.0196 28.2778 -60.9012 27.8155C-61.7827 27.3532 -62.518 26.6544 -63.0245 25.7976H-63.1277L-65.0038 34.4467H-71.3172L-66.2515 10.7507H-60.3228L-60.7918 13.0302C-60.1727 12.1882 -59.3707 11.4975 -58.4462 11.01C-57.5217 10.5226 -56.4987 10.2511 -55.4541 10.216C-51.7018 10.216 -49.4973 13.4336 -49.5629 17.6175C-49.6474 22.8801 -52.3772 28.4148 -58.0714 28.4148H-58.0339ZM-58.2778 15.0565C-60.6886 15.0565 -62.1708 18.1428 -62.2083 20.5162C-62.2083 22.1672 -61.6267 24.0058 -59.6474 24.0058C-57.0676 24.0058 -56.0076 20.5912 -55.9795 18.3116C-55.9795 16.7638 -56.4297 15.0565 -58.2778 15.0565ZM-22.208 25.1503H-22.105L-22.649 27.8614H-16.721L-13.146 10.7694H-19.375L-21.364 20.3191C-21.767 22.2985 -22.987 23.3398 -24.525 23.3398C-26.064 23.3398 -26.402 21.8951 -26.092 20.3848L-24.075 10.7694H-30.304L-32.509 21.3229C-33.447 25.9195 -31.308 28.3961 -27.724 28.3961C-26.599 28.3851 -25.496 28.0776 -24.528 27.5044C-23.56 26.9312 -22.759 26.1127 -22.208 25.1315V25.1503ZM11.253 34.5312L12.191 29.7375H-61.7862L-62.7243 34.5312H11.253Z" fill="white"/>
<path d="M17.96 15.4409C17.899 15.4362 17.839 15.4193 17.784 15.3912C17.728 15.3632 17.679 15.3245 17.639 15.2774C17.599 15.2303 17.569 15.1758 17.55 15.1169C17.531 15.058 17.524 14.996 17.529 14.9343C17.607 14.0989 17.508 13.2563 17.238 12.4619C16.968 11.6675 16.533 10.939 15.961 10.3244C15.39 9.70973 14.695 9.22271 13.923 8.89521C13.15 8.56772 12.317 8.40714 11.478 8.424C11.354 8.424 11.235 8.37459 11.147 8.28662C11.059 8.19866 11.009 8.07935 11.009 7.95495C11.009 7.83055 11.059 7.71126 11.147 7.6233C11.235 7.53533 11.354 7.48591 11.478 7.48591C11.703 7.50045 11.929 7.50045 12.154 7.48591C13.82 7.3084 15.372 6.55561 16.543 5.35708C17.715 4.15855 18.431 2.58925 18.57 0.919306C18.58 0.801523 18.633 0.691657 18.72 0.611654C18.807 0.531652 18.921 0.487416 19.039 0.487795C19.101 0.49253 19.161 0.509418 19.216 0.537479C19.271 0.56554 19.32 0.604223 19.36 0.651304C19.401 0.698386 19.431 0.752932 19.45 0.811808C19.469 0.870684 19.476 0.93272 19.471 0.994355C19.393 1.82902 19.492 2.67077 19.761 3.46455C20.031 4.25832 20.465 4.98625 21.035 5.60075C21.606 6.21524 22.299 6.70246 23.07 7.03055C23.842 7.35864 24.674 7.5202 25.512 7.50467C25.636 7.50467 25.756 7.5541 25.844 7.64206C25.932 7.73002 25.981 7.84932 25.981 7.97372C25.981 8.09812 25.932 8.21743 25.844 8.30539C25.756 8.39335 25.636 8.44276 25.512 8.44276C23.73 8.4722 22.021 9.15874 20.714 10.3707C19.407 11.5826 18.593 13.2345 18.43 15.0094C18.42 15.1272 18.367 15.2371 18.28 15.3171C18.193 15.3971 18.079 15.4413 17.96 15.4409Z" fill="white"/>
</g>
<defs>
<clipPath id="clip0_430_3334">
<rect width="175" height="40" fill="white" transform="translate(-144)"/>
</clipPath>
</defs>
</svg>
