<svg width="203" height="40" viewBox="0 0 203 40" fill="none" xmlns="http://www.w3.org/2000/svg">
<g clip-path="url(#clip0_430_3266)">
<path fill-rule="evenodd" clip-rule="evenodd" d="M26.0557 11.6853C24.4112 10.5865 22.4778 10 20.5 10V0C24.4556 0 28.3224 1.17298 31.6114 3.37061C34.9004 5.56823 37.4638 8.69181 38.9776 12.3463C40.4913 16.0008 40.8874 20.0222 40.1157 23.9018C39.344 27.7814 37.4392 31.3451 34.6421 34.1421C31.8451 36.9392 28.2814 38.844 24.4018 39.6157C20.5222 40.3874 16.5008 39.9913 12.8463 38.4776C9.1918 36.9638 6.06823 34.4004 3.87061 31.1114C1.67298 27.8224 0.5 23.9556 0.5 20H10.5C10.5 21.9778 11.0865 23.9112 12.1853 25.5557C13.2841 27.2002 14.8459 28.4819 16.6732 29.2388C18.5004 29.9957 20.5111 30.1937 22.4509 29.8078C24.3907 29.422 26.1725 28.4696 27.5711 27.0711C28.9696 25.6725 29.922 23.8907 30.3078 21.9509C30.6937 20.0111 30.4957 18.0004 29.7388 16.1732C28.9819 14.3459 27.7002 12.7841 26.0557 11.6853Z" fill="#626767"/>
<path fill-rule="evenodd" clip-rule="evenodd" d="M10.5 5.28493e-06C10.5 1.31322 10.2413 2.61358 9.73879 3.82684C9.23624 5.04009 8.49965 6.14248 7.57106 7.07107C6.64248 7.99966 5.54009 8.73625 4.32683 9.2388C3.11357 9.74134 1.81321 10 0.5 10L0.5 20C3.12643 20 5.72715 19.4827 8.15367 18.4776C10.5802 17.4725 12.785 15.9993 14.6421 14.1421C16.4993 12.285 17.9725 10.0802 18.9776 7.65367C19.9827 5.22715 20.5 2.62643 20.5 0L10.5 5.28493e-06Z" fill="#626767"/>
<path d="M126.119 14.4526H121.267V29.8649H126.119V14.4526Z" fill="#626767"/>
<path d="M121.807 11.5666C122.314 12.074 122.948 12.3277 123.709 12.3277C124.47 12.3277 125.094 12.074 125.58 11.5666C126.067 11.0381 126.31 10.4038 126.31 9.66385C126.31 8.90277 126.067 8.26849 125.58 7.76111C125.094 7.25369 124.47 7 123.709 7C122.948 7 122.314 7.25369 121.807 7.76111C121.32 8.26849 121.077 8.90277 121.077 9.66385C121.077 10.4038 121.32 11.0381 121.807 11.5666Z" fill="#626767"/>
<path d="M51.6562 29.8647V7.47559H56.6352V25.4884H66.5613V29.8647H51.6562Z" fill="#626767"/>
<path fill-rule="evenodd" clip-rule="evenodd" d="M75.5274 30.2135C73.9418 30.2135 72.5042 29.8647 71.2145 29.167C69.946 28.4482 68.9418 27.4757 68.2018 26.2494C67.4619 25.0232 67.0919 23.649 67.0919 22.1268C67.0919 20.6046 67.4619 19.241 68.2018 18.0359C68.9418 16.8308 69.946 15.8794 71.2145 15.1818C72.483 14.4629 73.9207 14.1035 75.5274 14.1035C77.1342 14.1035 78.5718 14.4524 79.8403 15.15C81.1088 15.8477 82.1131 16.8097 82.853 18.0359C83.593 19.241 83.963 20.6046 83.963 22.1268C83.963 23.649 83.593 25.0232 82.853 26.2494C82.1131 27.4757 81.1088 28.4482 79.8403 29.167C78.5718 29.8647 77.1342 30.2135 75.5274 30.2135ZM75.5274 25.8055C76.2251 25.8055 76.8382 25.6575 77.3668 25.3615C77.8953 25.0444 78.297 24.611 78.5718 24.0613C78.8678 23.4905 79.0158 22.8456 79.0158 22.1268C79.0158 21.408 78.8678 20.7843 78.5718 20.2558C78.2758 19.7061 77.8636 19.2833 77.335 18.9873C76.8276 18.6701 76.2251 18.5116 75.5274 18.5116C74.8509 18.5116 74.2484 18.6701 73.7198 18.9873C73.1913 19.2833 72.779 19.7061 72.483 20.2558C72.187 20.8055 72.0391 21.4397 72.0391 22.1585C72.0391 22.8562 72.187 23.4905 72.483 24.0613C72.779 24.611 73.1913 25.0444 73.7198 25.3615C74.2484 25.6575 74.8509 25.8055 75.5274 25.8055Z" fill="#626767"/>
<path fill-rule="evenodd" clip-rule="evenodd" d="M87.8057 35.8902C89.0953 36.4821 90.5858 36.7781 92.2772 36.7781C93.9262 36.7781 95.3956 36.4504 96.6852 35.795C97.9749 35.1396 98.9896 34.2306 99.7296 33.0678C100.47 31.905 100.84 30.5308 100.84 28.9451V14.4525H96.0826V15.488C95.7288 15.1902 95.327 14.9402 94.8776 14.7379C94.053 14.3362 93.1122 14.1353 92.0552 14.1353C90.6387 14.1353 89.3807 14.4736 88.2814 15.1501C87.1819 15.8055 86.3152 16.7146 85.6809 17.8774C85.0466 19.0191 84.7296 20.3087 84.7296 21.7464C84.7296 23.1629 85.0466 24.4525 85.6809 25.6153C86.3152 26.7781 87.1819 27.6978 88.2814 28.3743C89.3807 29.0508 90.6387 29.3891 92.0552 29.3891C93.0911 29.3891 94.0319 29.1883 94.8776 28.7866C95.2872 28.592 95.6572 28.3627 95.9875 28.0986V29.072C95.9875 30.1502 95.6387 30.9853 94.941 31.5773C94.2645 32.1693 93.3237 32.4652 92.1186 32.4652C91.1461 32.4652 90.311 32.2961 89.6133 31.9578C88.9368 31.6196 88.3236 31.1227 87.7739 30.4673L84.793 33.4483C85.5329 34.5054 86.5372 35.3194 87.8057 35.8902ZM94.719 24.6322C94.2327 24.9282 93.6514 25.0762 92.9748 25.0762C92.2983 25.0762 91.7063 24.9282 91.1989 24.6322C90.7126 24.3362 90.3321 23.9345 90.0573 23.4271C89.7824 22.8986 89.645 22.3383 89.645 21.7464C89.645 21.1121 89.7824 20.5413 90.0573 20.0339C90.3321 19.5265 90.7232 19.1248 91.2306 18.8288C91.738 18.5328 92.3194 18.3848 92.9748 18.3848C93.6514 18.3848 94.2327 18.5328 94.719 18.8288C95.2264 19.1248 95.6069 19.5265 95.8607 20.0339C96.1355 20.5413 96.2729 21.1121 96.2729 21.7464C96.2729 22.3806 96.1355 22.9514 95.8607 23.4588C95.6069 23.9451 95.2264 24.3362 94.719 24.6322Z" fill="#626767"/>
<path fill-rule="evenodd" clip-rule="evenodd" d="M111.051 30.2135C109.465 30.2135 108.027 29.8647 106.738 29.167C105.469 28.4482 104.465 27.4757 103.725 26.2494C102.985 25.0232 102.615 23.649 102.615 22.1268C102.615 20.6046 102.985 19.241 103.725 18.0359C104.465 16.8308 105.469 15.8794 106.738 15.1818C108.006 14.4629 109.444 14.1035 111.051 14.1035C112.657 14.1035 114.095 14.4524 115.363 15.15C116.632 15.8477 117.636 16.8097 118.376 18.0359C119.116 19.241 119.486 20.6046 119.486 22.1268C119.486 23.649 119.116 25.0232 118.376 26.2494C117.636 27.4757 116.632 28.4482 115.363 29.167C114.095 29.8647 112.657 30.2135 111.051 30.2135ZM111.051 25.8055C111.748 25.8055 112.361 25.6575 112.89 25.3615C113.418 25.0444 113.82 24.611 114.095 24.0613C114.391 23.4905 114.539 22.8456 114.539 22.1268C114.539 21.408 114.391 20.7843 114.095 20.2558C113.799 19.7061 113.387 19.2833 112.858 18.9873C112.351 18.6701 111.748 18.5116 111.051 18.5116C110.374 18.5116 109.771 18.6701 109.243 18.9873C108.714 19.2833 108.302 19.7061 108.006 20.2558C107.71 20.8055 107.562 21.4397 107.562 22.1585C107.562 22.8562 107.71 23.4905 108.006 24.0613C108.302 24.611 108.714 25.0444 109.243 25.3615C109.771 25.6575 110.374 25.8055 111.051 25.8055Z" fill="#626767"/>
<path fill-rule="evenodd" clip-rule="evenodd" d="M137.781 30.1819C136.746 30.1819 135.794 29.9811 134.927 29.5794C134.471 29.368 134.059 29.1156 133.691 28.8222V36.3659H128.902V14.4525H133.754V15.5162C134.106 15.2283 134.497 14.9794 134.927 14.7696C135.794 14.3467 136.746 14.1353 137.781 14.1353C139.24 14.1353 140.53 14.4842 141.65 15.1819C142.792 15.8795 143.68 16.8309 144.314 18.036C144.97 19.2411 145.297 20.6153 145.297 22.1586C145.297 23.702 144.97 25.0762 144.314 26.2813C143.68 27.4864 142.792 28.4377 141.65 29.1354C140.53 29.8331 139.24 30.1819 137.781 30.1819ZM136.894 25.8056C137.591 25.8056 138.194 25.647 138.701 25.3299C139.23 25.0128 139.642 24.5793 139.938 24.0297C140.234 23.48 140.382 22.8563 140.382 22.1586C140.382 21.4398 140.234 20.8056 139.938 20.2559C139.642 19.7062 139.23 19.2834 138.701 18.9874C138.194 18.6702 137.602 18.5117 136.925 18.5117C136.249 18.5117 135.646 18.6702 135.118 18.9874C134.61 19.2834 134.209 19.7062 133.913 20.2559C133.617 20.8056 133.469 21.4398 133.469 22.1586C133.469 22.8563 133.606 23.48 133.881 24.0297C134.177 24.5793 134.589 25.0128 135.118 25.3299C135.646 25.647 136.238 25.8056 136.894 25.8056Z" fill="#626767"/>
<path d="M150.046 29.8963C150.934 30.1289 151.832 30.2451 152.741 30.2451C154.665 30.2451 156.187 29.8012 157.308 28.9132C158.449 28.0253 159.02 26.8308 159.02 25.3297C159.02 24.3572 158.841 23.5749 158.481 22.983C158.122 22.3699 157.657 21.8836 157.086 21.5242C156.515 21.1648 155.912 20.8793 155.278 20.6679C154.644 20.4565 154.041 20.2768 153.471 20.1288C152.9 19.9808 152.435 19.8117 152.075 19.6214C151.716 19.4311 151.536 19.1774 151.536 18.8603C151.536 18.5643 151.674 18.3423 151.948 18.1943C152.223 18.0252 152.635 17.9407 153.185 17.9407C153.756 17.9407 154.337 18.0569 154.929 18.2895C155.542 18.522 156.092 18.9238 156.578 19.4946L159.337 16.7039C158.64 15.8159 157.731 15.1499 156.61 14.706C155.511 14.2409 154.306 14.0083 152.995 14.0083C151.748 14.0083 150.659 14.2197 149.729 14.6425C148.798 15.0654 148.079 15.6468 147.572 16.3867C147.065 17.1055 146.811 17.9618 146.811 18.9555C146.811 19.8857 146.991 20.6574 147.35 21.2705C147.709 21.8624 148.175 22.3276 148.745 22.6658C149.316 23.0041 149.919 23.2684 150.553 23.4586C151.187 23.6489 151.79 23.8286 152.361 23.9978C152.931 24.1458 153.397 24.3255 153.756 24.5369C154.137 24.7272 154.327 25.0126 154.327 25.3931C154.327 25.6891 154.168 25.9216 153.851 26.0908C153.555 26.2599 153.122 26.3445 152.551 26.3445C151.726 26.3445 150.965 26.1965 150.268 25.9005C149.57 25.5834 148.967 25.15 148.46 24.6003L145.701 27.391C146.23 27.9618 146.864 28.4693 147.604 28.9132C148.365 29.336 149.179 29.6637 150.046 29.8963Z" fill="#626767"/>
<path d="M167.868 30.2137C166.452 30.2137 165.194 29.9283 164.095 29.3575C163.016 28.7655 162.171 27.9621 161.558 26.9473C160.944 25.9114 160.638 24.7275 160.638 23.3955V14.4526H165.49V23.3321C165.49 23.8606 165.574 24.3152 165.744 24.6957C165.934 25.0763 166.209 25.3723 166.568 25.5837C166.928 25.7951 167.361 25.9008 167.868 25.9008C168.587 25.9008 169.158 25.6788 169.581 25.2348C170.004 24.7697 170.215 24.1355 170.215 23.3321V14.4526H175.067V23.3638C175.067 24.7169 174.761 25.9114 174.147 26.9473C173.534 27.9621 172.689 28.7655 171.61 29.3575C170.532 29.9283 169.285 30.2137 167.868 30.2137Z" fill="#626767"/>
<path d="M182.331 14.4525H177.479V29.8648H182.331V20.8584C182.331 20.3299 182.437 19.8859 182.648 19.5265C182.881 19.1671 183.188 18.8922 183.568 18.702C183.949 18.4905 184.382 18.3848 184.868 18.3848C185.566 18.3848 186.147 18.6068 186.612 19.0508C187.099 19.4736 187.342 20.0762 187.342 20.8584V29.8648H192.194V20.8584C192.194 20.3299 192.3 19.8859 192.511 19.5265C192.744 19.1671 193.05 18.8922 193.431 18.702C193.811 18.4905 194.245 18.3848 194.731 18.3848C195.429 18.3848 196.01 18.6068 196.475 19.0508C196.961 19.4736 197.204 20.0762 197.204 20.8584V29.8648H202.057V20.3193C202.057 19.0297 201.782 17.9303 201.232 17.0212C200.703 16.0909 199.974 15.3827 199.044 14.8965C198.135 14.389 197.088 14.1353 195.904 14.1353C194.699 14.1353 193.61 14.3996 192.638 14.9282C192.006 15.2649 191.454 15.6995 190.981 16.2319C190.54 15.675 190.004 15.2193 189.371 14.8647C188.526 14.3785 187.564 14.1353 186.486 14.1353C185.344 14.1353 184.319 14.3785 183.41 14.8647C183.014 15.067 182.655 15.3093 182.331 15.5916V14.4525Z" fill="#626767"/>
</g>
<defs>
<clipPath id="clip0_430_3266">
<rect width="202" height="40" fill="white" transform="translate(0.5)"/>
</clipPath>
</defs>
</svg>
