<svg width="20" height="20" viewBox="0 0 20 20" fill="none" xmlns="http://www.w3.org/2000/svg">
<path d="M16.1956 3.3624C16.3059 3.53566 16.117 3.7375 15.9168 3.69199C15.5251 3.57533 15.0918 3.51699 14.6501 3.51699H11.9415C11.7843 3.51699 11.6362 3.44305 11.5418 3.31736L10.6084 2.07533C10.4911 1.90903 10.602 1.66699 10.8056 1.66699H13.1001C14.4009 1.66699 15.5468 2.3426 16.1956 3.3624Z" fill="#242626"/>
<path d="M16.7834 5.45033C16.4251 5.19199 16.0167 5.00033 15.5751 4.89199C15.2751 4.80866 14.9667 4.76699 14.6501 4.76699H11.5501C11.0667 4.76699 11.0334 4.72533 10.7751 4.38366L9.60841 2.83366C9.06675 2.10866 8.64175 1.66699 7.28341 1.66699H5.35008C3.31675 1.66699 1.66675 3.31699 1.66675 5.35033V14.6503C1.66675 16.6837 3.31675 18.3337 5.35008 18.3337H14.6501C16.6834 18.3337 18.3334 16.6837 18.3334 14.6503V8.45033C18.3334 7.20866 17.7251 6.11699 16.7834 5.45033ZM11.9917 13.617H8.00008C7.67508 13.617 7.42508 13.3587 7.42508 13.0337C7.42508 12.717 7.67508 12.4503 8.00008 12.4503H11.9917C12.3167 12.4503 12.5751 12.717 12.5751 13.0337C12.5751 13.3587 12.3167 13.617 11.9917 13.617Z" fill="#242626"/>
</svg>
