
<svg version="1.1" id="_Слой_2" xmlns="http://www.w3.org/2000/svg" xmlns:xlink="http://www.w3.org/1999/xlink" x="0px"
	 y="0px" width="220" viewBox="0 0 619.7 142.5" style="enable-background:new 0 0 619.7 142.5;" xml:space="preserve">
<style type="text/css">
	.st0{fill:#0D6EFD;}
	.st1{fill:#080808;}
</style>
<g id="_Слой_2-2">
	<g>
		<path class="st0" d="M71.4,2.1c-36.5,0-66.1,29.5-66.1,66c0,19.5,8.5,37,21.9,49.1l4.7,24.2l4.7-26.6l0,0l12.1-68.4h12.2l19.1,37
			l32.2-37h12.6L113,113.5H99.6l7.3-41.3l-30.6,35.2L57.8,71.7l-10.3,58c7.4,2.9,15.5,4.5,23.9,4.5c36.5,0,66.1-29.6,66.1-66.1
			S107.9,2.1,71.4,2.1z M91,61.1l-9.3,10.7L77.1,63l4.5-25.6H41.4L32,91.2H18.5L30.3,24h67.2L91,61.1z"/>
		<g>
			<g>
				<polygon class="st0" points="155.8,36 171.6,36 171.6,64.4 179.7,64.4 179.7,29.4 147.8,29.4 147.8,64.4 155.8,64.4 				"/>
				<polygon class="st0" points="215.5,57.9 196.5,57.9 196.5,49.8 212.7,49.8 212.7,43.5 196.5,43.5 196.5,35.9 214.9,35.9 
					214.9,29.4 188.4,29.4 188.4,64.4 215.5,64.4 				"/>
				<path class="st0" d="M230.2,54.8h7.1c9.4,0,15.2-4.9,15.2-12.7s-5.9-12.7-15.2-12.7h-15.2v35h8.1L230.2,54.8L230.2,54.8z
					 M230.2,36h6.6c4.9,0,7.5,2.3,7.5,6.1s-2.5,6.1-7.5,6.1h-6.6V36z"/>
				<path class="st0" d="M274.8,65c6.1,0,11.2-2.2,14.5-6.3l-5.2-4.8c-2.3,2.8-5.3,4.2-8.8,4.2c-6.6,0-11.2-4.6-11.2-11.2
					s4.7-11.2,11.2-11.2c3.5,0,6.5,1.4,8.8,4.1l5.2-4.8c-3.3-4-8.3-6.2-14.4-6.2c-10.9,0-19,7.6-19,18.1S264,65,274.8,65L274.8,65z"
					/>
				<path class="st0" d="M310.6,65c11,0,19.2-7.7,19.2-18.1s-8.2-18.1-19.2-18.1s-19.2,7.7-19.2,18.1S299.5,65,310.6,65z
					 M310.6,35.7c6.3,0,11,4.6,11,11.2s-4.7,11.2-11,11.2s-11-4.6-11-11.2S304.3,35.7,310.6,35.7z"/>
				<polygon class="st0" points="360,43.2 344.1,43.2 344.1,29.4 336,29.4 336,64.4 344.1,64.4 344.1,50.1 360,50.1 360,64.4 
					368.1,64.4 368.1,29.4 360,29.4 				"/>
				<path class="st0" d="M382.6,56.9h16.3l3.1,7.5h8.5l-15.7-35h-8l-15.6,35h8.3L382.6,56.9L382.6,56.9z M390.7,37.4l5.6,13.4h-11.1
					C385.2,50.8,390.7,37.4,390.7,37.4z"/>
				<path class="st0" d="M428.1,43.3l0.3-7.3h12v28.4h8v-35h-26.9L421,43.6c-0.4,9-1.4,14.2-5.5,14.2c-0.5,0-0.9-0.1-1.5-0.2
					l-0.5,6.9c1.5,0.4,2.8,0.6,4,0.6C425.7,65,427.6,57.1,428.1,43.3L428.1,43.3z"/>
				<path class="st0" d="M487.3,52.2c0-7.6-4.8-11.3-13.3-11.3h-8.9V29.4H457v35h15.8C481.9,64.4,487.3,60.3,487.3,52.2L487.3,52.2z
					 M465.2,58.4V46.9h7.3c4.2,0,6.7,1.6,6.7,5.4s-2.5,6.1-6.7,6.1H465.2z"/>
				<polygon class="st0" points="501.3,50.1 517.2,50.1 517.2,64.4 525.3,64.4 525.3,29.4 517.2,29.4 517.2,43.2 501.3,43.2 
					501.3,29.4 493.2,29.4 493.2,64.4 501.3,64.4 				"/>
				<path class="st0" d="M564.3,52.2c0-7.6-4.8-11.3-13.3-11.3h-8.9V29.4H534v35h15.8C558.9,64.4,564.3,60.3,564.3,52.2L564.3,52.2z
					 M542.1,58.4V46.9h7.3c4.2,0,6.7,1.6,6.7,5.4s-2.5,6.1-6.7,6.1H542.1z"/>
				<rect x="568.7" y="29.4" class="st0" width="8.1" height="35"/>
				<path class="st0" d="M601.6,27.2c6.6,0,9.7-2.8,9.7-7.7h-5.6c-0.1,2.4-1.5,3.7-4.2,3.7s-4.1-1.3-4.2-3.7h-5.6
					C592,24.4,595,27.2,601.6,27.2z"/>
				<polygon class="st0" points="609.8,41.7 609.8,64.4 617.8,64.4 617.8,29.4 610.2,29.4 593.5,52.2 593.5,29.4 585.5,29.4 
					585.5,64.4 593.1,64.4 				"/>
				<polygon class="st1" points="188.2,74.9 172.3,104.8 156.1,74.9 147.8,74.9 147.8,118.2 157.2,118.2 157.2,94.3 169.9,118.2 
					174.4,118.2 187.1,93.8 187.2,118.2 196.6,118.2 196.5,74.9 				"/>
				<polygon class="st1" points="389,83.1 402.8,83.1 402.8,118.2 412.7,118.2 412.7,83.1 426.6,83.1 426.6,74.9 389,74.9 				"/>
				<path class="st1" d="M490.5,92.5c-0.4,11.1-1.7,17.5-6.8,17.5c-0.6,0-1.2-0.1-1.8-0.3l-0.6,8.5c1.9,0.4,3.5,0.7,4.9,0.7
					c10.1,0,12.6-9.8,13.1-26.8l0.3-9h14.8v35.1h9.9V74.9H491L490.5,92.5L490.5,92.5z"/>
				<path class="st1" d="M555.9,74.2c-13.7,0-23.7,9.5-23.7,22.4s10,22.4,23.7,22.4s23.7-9.5,23.7-22.4S569.5,74.2,555.9,74.2z
					 M555.9,110.4c-7.7,0-13.5-5.6-13.5-13.9s5.8-13.9,13.5-13.9s13.5,5.6,13.5,13.9S563.6,110.4,555.9,110.4z"/>
				<path class="st1" d="M455.1,74.2c-13.7,0-23.7,9.5-23.7,22.4s10,22.4,23.7,22.4s23.7-9.5,23.7-22.4S468.7,74.2,455.1,74.2z
					 M455.1,110.4c-7.7,0-13.5-5.6-13.5-13.9s5.8-13.9,13.5-13.9s13.5,5.6,13.5,13.9S462.8,110.4,455.1,110.4z"/>
				<polygon class="st1" points="617.8,74.9 587.3,74.9 587.3,118.2 597.2,118.2 597.2,83.1 617.8,83.1 				"/>
				<polygon class="st1" points="221.8,74.9 202.5,118.2 212.7,118.2 226.6,84.7 233.5,101.3 228.5,101.3 225.3,108.9 236.7,108.9 
					240.5,118.2 251,118.2 231.6,74.9 				"/>
				<path class="st1" d="M275.5,74.9h-18.7v8.2H275c6.1,0,9.2,2.8,9.2,7.5s-3.1,7.5-9.2,7.5h-18.2v20.1h10v-11.9h8.7
					c11.6,0,18.8-6,18.8-15.6S287.1,74.9,275.5,74.9z"/>
				<polygon class="st1" points="340.5,74.9 329.3,74.9 310.2,95.1 310.2,74.9 300.2,74.9 300.2,117.6 310.2,107.2 316,101.2 
					329.8,118.2 341.5,118.2 322.5,94.2 				"/>
				<g>
					<polygon class="st0" points="358.4,83 381.1,83 381.1,74.9 348.4,74.9 348.4,83 					"/>
					<polygon class="st1" points="358.4,110.2 358.4,100.1 378.5,100.1 378.5,92.3 358.4,92.3 348.4,92.3 348.4,118.2 381.9,118.2 
						381.9,110.2 					"/>
				</g>
			</g>
		</g>
	</g>
</g>
</svg>
