<svg width="20" height="20" viewBox="0 0 20 20" fill="none" xmlns="http://www.w3.org/2000/svg">
<path d="M12.9917 10.3333V13.725C12.9917 14.025 12.9584 14.3083 12.8834 14.5667C12.5751 15.7917 11.5584 16.5583 10.1584 16.5583H7.89175L5.37508 18.2333C5.00008 18.4917 4.50008 18.2167 4.50008 17.7667V16.5583C3.65008 16.5583 2.94175 16.275 2.45008 15.7833C1.95008 15.2833 1.66675 14.575 1.66675 13.725V10.3333C1.66675 8.75 2.65008 7.65833 4.16675 7.51667C4.27508 7.50833 4.38341 7.5 4.50008 7.5H10.1584C11.8584 7.5 12.9917 8.63333 12.9917 10.3333Z" fill="#242626"/>
<path d="M14.7917 13.0003C15.8501 13.0003 16.7417 12.6503 17.3584 12.0253C17.9834 11.4087 18.3334 10.517 18.3334 9.45866V5.20866C18.3334 3.25033 16.7501 1.66699 14.7917 1.66699H7.70841C5.75008 1.66699 4.16675 3.25033 4.16675 5.20866V5.83366C4.16675 6.06699 4.35008 6.25033 4.58341 6.25033H10.1584C12.4167 6.25033 14.2417 8.07533 14.2417 10.3337V12.5837C14.2417 12.817 14.4251 13.0003 14.6584 13.0003H14.7917Z" fill="#242626"/>
</svg>
