<svg width="20" height="20" viewBox="0 0 20 20" fill="none" xmlns="http://www.w3.org/2000/svg">
<path d="M16.7501 7.68287C15.2417 7.68287 14.6251 6.61621 15.3751 5.30787C15.8084 4.54954 15.5501 3.58287 14.7917 3.14954L13.3501 2.32454C12.6917 1.93287 11.8417 2.16621 11.4501 2.82454L11.3584 2.98287C10.6084 4.29121 9.37508 4.29121 8.61675 2.98287L8.52508 2.82454C8.15008 2.16621 7.30008 1.93287 6.64175 2.32454L5.20008 3.14954C4.44175 3.58287 4.18341 4.55787 4.61675 5.31621C5.37508 6.61621 4.75841 7.68287 3.25008 7.68287C2.38341 7.68287 1.66675 8.39121 1.66675 9.26621V10.7329C1.66675 11.5995 2.37508 12.3162 3.25008 12.3162C4.75841 12.3162 5.37508 13.3829 4.61675 14.6912C4.18341 15.4495 4.44175 16.4162 5.20008 16.8495L6.64175 17.6745C7.30008 18.0662 8.15008 17.8329 8.54175 17.1745L8.63341 17.0162C9.38341 15.7079 10.6167 15.7079 11.3751 17.0162L11.4667 17.1745C11.8584 17.8329 12.7084 18.0662 13.3667 17.6745L14.8084 16.8495C15.5667 16.4162 15.8251 15.4412 15.3917 14.6912C14.6334 13.3829 15.2501 12.3162 16.7584 12.3162C17.6251 12.3162 18.3417 11.6079 18.3417 10.7329V9.26621C18.3334 8.39954 17.6251 7.68287 16.7501 7.68287ZM10.0001 12.7079C8.50842 12.7079 7.29175 11.4912 7.29175 9.99954C7.29175 8.50787 8.50842 7.29121 10.0001 7.29121C11.4917 7.29121 12.7084 8.50787 12.7084 9.99954C12.7084 11.4912 11.4917 12.7079 10.0001 12.7079Z" fill="#242626"/>
</svg>
