<svg width="20" height="20" viewBox="0 0 20 20" fill="none" xmlns="http://www.w3.org/2000/svg">
<path d="M13.4917 1.66699H6.50841C3.47508 1.66699 1.66675 3.47533 1.66675 6.50866V13.4837C1.66675 16.5253 3.47508 18.3337 6.50841 18.3337H13.4834C16.5167 18.3337 18.3251 16.5253 18.3251 13.492V6.50866C18.3334 3.47533 16.5251 1.66699 13.4917 1.66699ZM14.0667 9.60866C14.0667 9.93366 13.8084 10.192 13.4834 10.192C13.1584 10.192 12.9001 9.93366 12.9001 9.60866V9.45866L10.6334 11.7253C10.5084 11.8503 10.3417 11.9087 10.1667 11.892C9.99175 11.8753 9.83341 11.7837 9.74175 11.6337L8.89175 10.367L6.90841 12.3503C6.79175 12.467 6.65008 12.517 6.50008 12.517C6.35008 12.517 6.20008 12.4587 6.09175 12.3503C5.86675 12.1253 5.86675 11.7587 6.09175 11.5253L8.57508 9.04199C8.70008 8.91699 8.86675 8.85866 9.04175 8.87533C9.21675 8.89199 9.37508 8.98366 9.46675 9.13366L10.3167 10.4003L12.0751 8.64199H11.9251C11.6001 8.64199 11.3417 8.38366 11.3417 8.05866C11.3417 7.73366 11.6001 7.47533 11.9251 7.47533H13.4751C13.5501 7.47533 13.6251 7.49199 13.7001 7.51699C13.8417 7.57533 13.9584 7.69199 14.0167 7.83366C14.0501 7.90866 14.0584 7.98366 14.0584 8.05866V9.60866H14.0667Z" fill="#242626"/>
</svg>
