<svg width="20" height="20" viewBox="0 0 20 20" fill="none" xmlns="http://www.w3.org/2000/svg">
<path d="M16.2583 4.87533L11.3083 2.01699C10.5 1.55033 9.50002 1.55033 8.68335 2.01699L3.74168 4.87533C2.93335 5.34199 2.43335 6.20866 2.43335 7.15033V12.8503C2.43335 13.7837 2.93335 14.6503 3.74168 15.1253L8.69168 17.9837C9.50002 18.4503 10.5 18.4503 11.3167 17.9837L16.2667 15.1253C17.075 14.6587 17.575 13.792 17.575 12.8503V7.15033C17.5667 6.20866 17.0667 5.35033 16.2583 4.87533ZM10 6.11699C11.075 6.11699 11.9417 6.98366 11.9417 8.05866C11.9417 9.13366 11.075 10.0003 10 10.0003C8.92502 10.0003 8.05835 9.13366 8.05835 8.05866C8.05835 6.99199 8.92502 6.11699 10 6.11699ZM12.2333 13.8837H7.76668C7.09168 13.8837 6.70002 13.1337 7.07502 12.5753C7.64168 11.7337 8.74168 11.167 10 11.167C11.2583 11.167 12.3583 11.7337 12.925 12.5753C13.3 13.1253 12.9 13.8837 12.2333 13.8837Z" fill="#242626"/>
</svg>
